<?xml version="1.0" encoding="utf-8"?>
<!-- Generator: Adobe Illustrator 16.0.0, SVG Export Plug-In . SVG Version: 6.00 Build 0)  -->
<!DOCTYPE svg PUBLIC "-//W3C//DTD SVG 1.1//EN" "http://www.w3.org/Graphics/SVG/1.1/DTD/svg11.dtd">
<svg version="1.1" id="Layer_1" xmlns="http://www.w3.org/2000/svg" xmlns:xlink="http://www.w3.org/1999/xlink" x="0px" y="0px"
	 width="80.174px" height="80.176px" viewBox="0 0 80.174 80.176" enable-background="new 0 0 80.174 80.176" xml:space="preserve">
<g>
	<path fill="#DA4F33" d="M0,40.088C0,17.945,17.946,0,40.088,0c22.144,0,40.086,17.945,40.086,40.088
		c0,22.141-17.942,40.088-40.086,40.088C17.946,80.176,0,62.229,0,40.088z"/>
	<g>
		<g>
			<g>
				<path fill="#FFFFFF" d="M40.088,29.153c-0.261,0-0.509-0.12-0.67-0.325c-0.405-0.515-0.79-0.99-1.148-1.436
					c-2.151-2.669-3.573-4.433-3.573-7.006c0-3.114,2.419-5.647,5.392-5.647s5.392,2.533,5.392,5.647
					c0,2.572-1.421,4.334-3.57,7.002c-0.359,0.446-0.744,0.924-1.151,1.44C40.597,29.033,40.349,29.153,40.088,29.153z"/>
			</g>
			<g>
				<path fill="#FFFFFF" d="M40.088,65.438C40.088,65.438,40.088,65.438,40.088,65.438c-2.973-0.001-5.392-2.534-5.392-5.647
					c0-2.573,1.422-4.337,3.574-7.007c0.359-0.445,0.742-0.92,1.147-1.435c0.162-0.205,0.409-0.324,0.67-0.324l0,0
					c0.261,0,0.509,0.119,0.67,0.324c0.407,0.516,0.79,0.993,1.15,1.438c2.15,2.668,3.571,4.431,3.571,7.003
					C45.479,62.904,43.061,65.438,40.088,65.438z"/>
			</g>
		</g>
		<g>
			<g>
				<path fill="#FFFFFF" d="M55.778,35.953L55.778,35.953c-1.268,0-2.678-0.271-4.461-0.615c-0.518-0.1-1.068-0.206-1.657-0.313
					c-0.245-0.044-0.459-0.194-0.584-0.41c-0.126-0.215-0.15-0.475-0.068-0.71c0.207-0.594,0.396-1.153,0.573-1.678
					c1.127-3.331,1.871-5.532,4.018-6.839c0.834-0.508,1.783-0.777,2.744-0.777c1.936,0,3.727,1.081,4.674,2.82
					c1.467,2.667,0.572,6.109-1.994,7.67C58.056,35.683,57.026,35.953,55.778,35.953z"/>
			</g>
			<g>
				<path fill="#FFFFFF" d="M23.835,55.563c-1.936,0-3.728-1.08-4.676-2.819c-1.465-2.666-0.571-6.108,1.994-7.671
					c0.968-0.581,1.998-0.852,3.246-0.852c1.271,0,2.688,0.273,4.479,0.619c0.514,0.099,1.059,0.204,1.641,0.311
					c0.245,0.045,0.459,0.194,0.584,0.41c0.125,0.215,0.15,0.475,0.068,0.71c-0.209,0.598-0.398,1.158-0.578,1.686
					c-1.126,3.327-1.87,5.524-4.014,6.83C25.745,55.295,24.796,55.563,23.835,55.563z"/>
			</g>
		</g>
		<g>
			<g>
				<path fill="#FFFFFF" d="M56.345,55.563L56.345,55.563c-0.962,0-1.911-0.269-2.746-0.776c-2.147-1.308-2.893-3.512-4.021-6.847
					c-0.177-0.522-0.364-1.078-0.571-1.67c-0.081-0.234-0.057-0.494,0.068-0.709c0.126-0.216,0.34-0.365,0.584-0.41
					c0.582-0.106,1.127-0.212,1.639-0.311c1.792-0.346,3.207-0.619,4.479-0.619c1.248,0,2.277,0.271,3.242,0.849
					c2.569,1.564,3.464,5.007,1.998,7.676C60.07,54.483,58.279,55.563,56.345,55.563z"/>
			</g>
			<g>
				<path fill="#FFFFFF" d="M24.396,35.953c-1.248,0-2.277-0.27-3.239-0.849c-2.569-1.564-3.463-5.006-1.998-7.676
					c0.947-1.737,2.738-2.817,4.674-2.817c0.962,0,1.91,0.269,2.744,0.777c2.145,1.306,2.888,3.502,4.014,6.827
					c0.179,0.528,0.369,1.091,0.578,1.689c0.082,0.235,0.058,0.495-0.068,0.71c-0.125,0.215-0.338,0.365-0.584,0.41
					c-0.589,0.107-1.141,0.213-1.658,0.313C27.073,35.681,25.664,35.953,24.396,35.953z"/>
			</g>
		</g>
	</g>
</g>
</svg>
