<?xml version="1.0" encoding="utf-8"?>
<!-- Generator: Adobe Illustrator 16.0.0, SVG Export Plug-In . SVG Version: 6.00 Build 0)  -->
<!DOCTYPE svg PUBLIC "-//W3C//DTD SVG 1.1//EN" "http://www.w3.org/Graphics/SVG/1.1/DTD/svg11.dtd">
<svg version="1.1" id="Layer_1" xmlns="http://www.w3.org/2000/svg" xmlns:xlink="http://www.w3.org/1999/xlink" x="0px" y="0px"
	 width="514.957px" height="80.176px" viewBox="0 0 514.957 80.176" enable-background="new 0 0 514.957 80.176"
	 xml:space="preserve">
<g>
	<path fill="#FFFFFF" d="M128.128,18.74h-19.871V8c18.081,0,33.387,0,51.559,0v10.74h-19.873v51.914h-11.814L128.128,18.74
		L128.128,18.74z"/>
	<path fill="#FFFFFF" d="M157.228,52.484c0.717,5.459,5.461,9.398,13.158,9.398c4.029,0,9.31-1.521,11.815-4.119l6.982,6.896
		c-4.655,4.83-12.263,7.161-18.977,7.161c-15.216,0-24.257-9.399-24.257-23.543c0-13.426,9.131-23.092,23.453-23.092
		c14.77,0,23.989,9.129,22.287,27.299H157.228L157.228,52.484z M181.217,43.447c-0.715-5.729-5.19-8.596-11.458-8.596
		c-5.908,0-10.74,2.867-12.352,8.596H181.217z"/>
	<path fill="#FFFFFF" d="M224.455,38.254c-3.135-2.955-6.715-3.939-10.923-3.939c-5.19,0-8.056,1.611-8.056,4.388
		c0,2.861,2.595,4.475,8.235,4.832c8.325,0.533,18.889,2.416,18.889,14.142c0,7.786-6.353,14.5-18.979,14.5
		c-6.981,0-13.963-1.159-20.406-7.874l5.369-7.791c3.132,3.491,10.293,6.09,15.217,6.178c4.117,0.096,7.967-2.059,7.967-5.277
		c0-3.043-2.506-4.296-8.772-4.657c-8.324-0.627-18.261-3.665-18.261-13.694c0-10.205,10.563-13.783,18.619-13.783
		c6.893,0,12.087,1.34,17.189,5.816L224.455,38.254z"/>
	<path fill="#FFFFFF" d="M252.195,14.086v12.53h12.172v9.399h-12.262V55.08c0,4.204,2.328,6.268,5.729,6.268
		c1.701,0,3.671-0.535,5.279-1.346l3.045,9.312c-3.133,1.252-5.729,1.789-9.041,1.877c-9.575,0.358-15.843-5.101-15.843-16.111
		V36.015h-8.235v-9.399h8.235V15.248L252.195,14.086z"/>
	<path fill="#FFFFFF" d="M345.148,70.654V47.023c0-5.814-3.046-11.099-9.041-11.099c-5.906,0-9.396,5.283-9.396,11.099v23.631
		h-10.922V26.438h10.115l0.807,5.371c2.328-4.476,7.426-6.087,11.635-6.087c5.281,0,10.562,2.147,13.07,8.238
		c3.939-6.268,9.039-8.06,14.77-8.06c12.529,0,18.707,7.698,18.707,20.946v23.812H373.97V46.846c0-5.816-2.416-10.741-8.321-10.741
		c-5.91,0-9.582,5.104-9.582,10.918v23.633h-10.918V70.654z"/>
	<path fill="#FFFFFF" d="M466.171,60.002c-1.613,0.811-3.578,1.346-5.281,1.346c-3.401,0-5.729-2.062-5.729-6.268V36.015h12.264
		v-9.399H455.25v-12.53l-10.92,1.161v11.369l-17.812-0.042l-0.36,6.039c-2.506-4.382-8.146-7.159-14.051-7.159
		c-12.892-0.092-23.007,7.876-23.007,23.091c0,15.49,9.664,23.545,22.736,23.456c4.922-0.092,11.814-2.599,14.32-7.791l0.535,6.444
		h10.299V36.015h7.336V55.08c0,11.013,6.268,16.472,15.846,16.111c3.312-0.088,5.91-0.625,9.039-1.877L466.171,60.002z
		 M413.091,61.971c-7.254,0-13.072-5.011-13.072-13.427c0-8.411,5.818-13.333,13.072-13.333
		C430.279,35.212,430.279,61.971,413.091,61.971z"/>
	<path fill="#FFFFFF" d="M311.898,48.635c0,12.713-8.685,23.004-23.004,23.004c-14.324,0-22.914-10.291-22.914-23.004
		c0-12.62,8.771-23.004,22.824-23.004C302.859,25.631,311.898,36.015,311.898,48.635z M276.902,48.635
		c0,6.717,4.025,12.98,11.992,12.98c7.969,0,11.993-6.266,11.993-12.98c0-6.624-4.655-13.068-11.993-13.068
		C281.016,35.567,276.902,42.012,276.902,48.635z"/>
	<path fill="#FFFFFF" d="M514.957,48.635c0,12.713-8.684,23.004-23.006,23.004c-14.32,0-22.914-10.291-22.914-23.004
		c0-12.62,8.771-23.004,22.824-23.004C505.914,25.631,514.957,36.015,514.957,48.635z M479.957,48.635
		c0,6.717,4.027,12.98,11.994,12.98s11.996-6.266,11.996-12.98c0-6.624-4.656-13.068-11.996-13.068
		C484.074,35.567,479.957,42.012,479.957,48.635z"/>
</g>
<g>
	<path fill="#DA4F33" d="M0,40.088C0,17.945,17.946,0,40.088,0c22.143,0,40.086,17.945,40.086,40.088
		c0,22.141-17.943,40.088-40.086,40.088C17.946,80.176,0,62.229,0,40.088z"/>
	<g>
		<g>
			<g>
				<path fill="#FFFFFF" d="M40.088,29.153c-0.261,0-0.508-0.12-0.67-0.325c-0.406-0.515-0.79-0.99-1.148-1.436
					c-2.151-2.669-3.573-4.433-3.573-7.006c0-3.114,2.418-5.646,5.391-5.646c2.973,0,5.391,2.533,5.391,5.646
					c0,2.572-1.42,4.334-3.57,7.002c-0.36,0.446-0.745,0.924-1.151,1.44C40.596,29.033,40.349,29.153,40.088,29.153z"/>
			</g>
			<g>
				<path fill="#FFFFFF" d="M40.088,65.438L40.088,65.438c-2.973,0-5.391-2.533-5.391-5.646c0-2.573,1.422-4.337,3.574-7.007
					c0.359-0.445,0.742-0.92,1.147-1.435c0.162-0.205,0.409-0.324,0.67-0.324l0,0c0.261,0,0.508,0.119,0.67,0.324
					c0.407,0.516,0.791,0.992,1.15,1.438c2.15,2.668,3.571,4.431,3.571,7.003C45.479,62.904,43.061,65.438,40.088,65.438z"/>
			</g>
		</g>
		<g>
			<g>
				<path fill="#FFFFFF" d="M55.778,35.953L55.778,35.953c-1.268,0-2.677-0.271-4.461-0.615c-0.518-0.1-1.069-0.206-1.657-0.313
					c-0.246-0.044-0.459-0.194-0.584-0.41c-0.125-0.215-0.15-0.475-0.068-0.71c0.207-0.594,0.396-1.153,0.574-1.678
					c1.126-3.331,1.871-5.532,4.017-6.839c0.835-0.508,1.784-0.777,2.745-0.777c1.936,0,3.727,1.081,4.674,2.82
					c1.466,2.667,0.572,6.109-1.995,7.67C58.056,35.683,57.026,35.953,55.778,35.953z"/>
			</g>
			<g>
				<path fill="#FFFFFF" d="M23.834,55.562c-1.936,0-3.727-1.08-4.675-2.818c-1.465-2.666-0.571-6.108,1.994-7.671
					c0.968-0.581,1.998-0.853,3.247-0.853c1.271,0,2.687,0.273,4.478,0.619c0.513,0.1,1.059,0.204,1.641,0.311
					c0.245,0.045,0.458,0.195,0.584,0.41c0.125,0.215,0.15,0.476,0.068,0.711c-0.208,0.598-0.398,1.158-0.577,1.686
					c-1.126,3.327-1.871,5.523-4.015,6.83C25.745,55.295,24.795,55.562,23.834,55.562z"/>
			</g>
		</g>
		<g>
			<g>
				<path fill="#FFFFFF" d="M56.344,55.562L56.344,55.562c-0.961,0-1.911-0.269-2.746-0.775c-2.147-1.309-2.893-3.512-4.021-6.848
					c-0.177-0.521-0.365-1.078-0.571-1.67c-0.082-0.233-0.057-0.494,0.068-0.709s0.339-0.365,0.584-0.41
					c0.582-0.105,1.126-0.211,1.639-0.311c1.792-0.346,3.206-0.619,4.478-0.619c1.248,0,2.278,0.271,3.242,0.85
					c2.57,1.563,3.464,5.007,1.999,7.676C60.07,54.482,58.279,55.562,56.344,55.562z"/>
			</g>
			<g>
				<path fill="#FFFFFF" d="M24.396,35.953c-1.248,0-2.277-0.27-3.24-0.849c-2.569-1.564-3.463-5.006-1.997-7.676
					c0.946-1.737,2.738-2.817,4.674-2.817c0.961,0,1.91,0.269,2.744,0.777c2.144,1.306,2.887,3.502,4.013,6.827
					c0.179,0.528,0.369,1.091,0.578,1.689c0.083,0.235,0.058,0.495-0.068,0.71c-0.126,0.215-0.339,0.365-0.584,0.41
					c-0.589,0.107-1.14,0.213-1.659,0.313C27.074,35.681,25.664,35.953,24.396,35.953z"/>
			</g>
		</g>
	</g>
</g>
</svg>
